<?xml version="1.0" standalone="no"?><!DOCTYPE svg PUBLIC "-//W3C//DTD SVG 1.1//EN" "http://www.w3.org/Graphics/SVG/1.1/DTD/svg11.dtd"><svg t="1557396240104" class="icon" style="" viewBox="0 0 1024 1024" version="1.1" xmlns="http://www.w3.org/2000/svg" p-id="8254" xmlns:xlink="http://www.w3.org/1999/xlink" width="32" height="32"><defs><style type="text/css"></style></defs><path d="M848.359691 960.76684 175.676126 960.76684c-62.157142 0-112.462889-50.380434-112.462889-112.459305L63.213237 231.463676c0-62.078871 50.305747-112.459305 112.462889-112.459305l112.673699 0 0 2.001587L230.594104 121.005958l0 84.066651c0 46.39875 37.614184 84.011392 84.013811 84.011392s85.709499-37.612643 85.709499-84.011392l0-84.066651-55.983283 0L344.334131 119.003348l336.035801 0 0 2.001587-57.773119 0 0 84.066651c0 46.39875 37.652048 84.011392 83.992321 84.011392 46.420094 0 85.827184-37.612643 85.827184-84.011392l0-84.066651-56.024217 0L736.392102 119.003348l111.968612 0c62.042527 0 112.424002 50.380434 112.424002 112.459305l0 616.84386C960.784716 910.386406 910.402218 960.76684 848.359691 960.76684L848.359691 960.76684zM868.1011 343.348905 158.584166 343.348905l0 524.69923 709.516934 0L868.1011 343.348905 868.1011 343.348905zM336.38681 414.44208l39.025381 0 0 39.023782 0 39.022759 0 39.023782-39.025381 0-39.024357 0L258.337071 531.512403l0-39.023782 0-39.022759L258.337071 414.44208l39.024357 0L336.38681 414.44208 336.38681 414.44208zM336.38681 609.55792l39.025381 0 0 39.022759 0 39.023782 0 39.022759-39.025381 0-39.024357 0L258.337071 726.627219l0-39.022759 0-39.023782 0-39.022759 39.024357 0L336.38681 609.55792 336.38681 609.55792zM531.511667 414.44208l39.023334 0 0 39.023782 0 39.022759 0 39.023782-39.023334 0-39.026404 0-39.024357 0 0-39.023782 0-39.022759L453.460905 414.44208l39.024357 0L531.511667 414.44208 531.511667 414.44208zM531.511667 609.55792l39.023334 0 0 39.022759 0 39.023782 0 39.022759-39.023334 0-39.026404 0-39.024357 0 0-39.022759 0-39.023782 0-39.022759 39.024357 0L531.511667 609.55792 531.511667 609.55792zM726.633454 414.44208l39.025381 0 0 39.023782 0 39.022759 0 39.023782-39.025381 0-39.023334 0-39.025381 0 0-39.023782 0-39.022759L648.58474 414.44208l39.025381 0L726.633454 414.44208 726.633454 414.44208zM726.633454 609.55792l39.025381 0 0 39.022759 0 39.023782 0 39.022759-39.025381 0-39.023334 0-39.025381 0 0-39.022759 0-39.023782 0-39.022759 39.025381 0L726.633454 609.55792 726.633454 609.55792zM736.391079 229.557256l-56.02217 0 0-108.552322 56.02217 0L736.391079 229.557256 736.391079 229.557256zM344.334131 229.557256l-55.983283 0 0-108.552322 55.983283 0L344.334131 229.557256 344.334131 229.557256zM288.349825 63.232137l55.983283 0L344.333108 119.003348l-55.983283 0L288.349825 63.232137 288.349825 63.232137zM680.368909 63.232137l56.02217 0L736.391079 119.003348l-56.02217 0L680.368909 63.232137 680.368909 63.232137z" p-id="8255" fill="#2196f3"></path></svg>