<?xml version="1.0" standalone="no"?><!DOCTYPE svg PUBLIC "-//W3C//DTD SVG 1.1//EN" "http://www.w3.org/Graphics/SVG/1.1/DTD/svg11.dtd"><svg t="1557200877087" class="icon" style="" viewBox="0 0 1024 1024" version="1.1" xmlns="http://www.w3.org/2000/svg" p-id="23492" xmlns:xlink="http://www.w3.org/1999/xlink" width="32" height="32"><defs><style type="text/css"></style></defs><path d="M580.768 1023.776H443.2c-75.84 0-137.504-61.44-137.504-136.96v-59.584c0-47.616-28.352-120.16-60.672-155.264-3.104-3.424-76.832-84.864-76.832-203.616 0-188.8 154.24-342.4 343.776-342.4 189.568 0 343.776 153.6 343.776 342.4 0 118.816-73.728 200.224-76.8 203.616-32.384 35.072-60.704 107.648-60.704 155.264v59.584c0 75.52-61.664 136.96-137.504 136.96zM512 194.432c-151.648 0-275.04 122.88-275.04 273.92 0 92.448 58.176 156.704 58.784 157.344 44.16 47.936 78.72 136.48 78.72 201.6v59.552c0 37.76 30.848 68.48 68.8 68.48h137.504c37.92 0 68.736-30.72 68.736-68.48v-59.552c0-65.12 34.592-153.6 78.72-201.6 0.544-0.576 58.816-65.92 58.816-157.344 0-151.04-123.392-273.92-275.04-273.92z" fill="#2196f3" p-id="23493"></path><path d="M649.504 582.08c-14.4 0-27.808-9.056-32.576-23.424l-16.8-50.144-63.776 63.552c-13.44 13.376-35.2 13.376-48.64 0l-63.776-63.552-16.8 50.144c-6.016 17.92-25.44 27.712-43.488 21.664a34.176 34.176 0 0 1-21.728-43.328l34.4-102.72a34.368 34.368 0 0 1 56.928-13.376L512 499.424l78.816-78.496a34.496 34.496 0 0 1 56.96 13.376l34.368 102.72a34.176 34.176 0 0 1-32.64 45.056zM889.824 240a34.24 34.24 0 0 1-23.04-59.648l34.944-31.36a34.432 34.432 0 0 1 48.544 2.496 34.176 34.176 0 0 1-2.496 48.384l-34.912 31.328a34.272 34.272 0 0 1-23.04 8.832zM134.208 240c-8.224 0-16.416-2.88-23.008-8.768L76.288 199.84a34.208 34.208 0 0 1-2.528-48.384 34.464 34.464 0 0 1 48.576-2.496l34.944 31.36a34.208 34.208 0 0 1-23.04 59.712zM512 96a32 32 0 0 1-32-32V32a32 32 0 0 1 64 0v32a32 32 0 0 1-32 32zM576 896h-128a32 32 0 1 1 0-64h128a32 32 0 1 1 0 64z" fill="#2196f3" p-id="23494"></path></svg>