<?xml version="1.0" standalone="no"?><!DOCTYPE svg PUBLIC "-//W3C//DTD SVG 1.1//EN" "http://www.w3.org/Graphics/SVG/1.1/DTD/svg11.dtd"><svg t="1557819682640" class="icon" style="" viewBox="0 0 1024 1024" version="1.1" xmlns="http://www.w3.org/2000/svg" p-id="9674" xmlns:xlink="http://www.w3.org/1999/xlink" width="32" height="32"><defs><style type="text/css"></style></defs><path d="M829.737273 811.633214l-46.451835-26.872963c-23.289901 22.969985-49.139132 42.612841-76.651927 58.608652l18.043275 67.822239c11.580967 43.38064-14.140297 87.912978-57.328987 99.493945l-39.221729 10.557235c-43.316656 11.580967-87.785011-14.140297-99.429962-57.456953l-18.235225-68.078172c-31.799672-0.19195-63.791295-4.478827-95.207068-12.796649l-25.977197 45.044204c-22.458119 38.837829-72.045133 52.146344-110.882963 29.816192L243.202871 937.232322c-38.773846-22.394136-52.082361-72.109116-29.688225-110.882963l25.977197-45.044204c-22.906001-23.097951-42.612841-48.627266-58.672635-76.140061l-68.078172 18.235225c-43.316656 11.64495-87.848995-14.076314-99.365979-57.39297L2.881805 626.593671c-11.64495-43.252673 14.076314-87.785011 57.39297-99.365979l67.694273-18.171241c0-32.055605 4.094928-64.239177 12.348766-95.910883L93.865979 386.336588C55.02815 363.942453 41.783618 314.227472 64.177753 275.389642l20.282688-35.190784c22.394136-38.901813 72.045133-52.210327 110.882963-29.752209l45.875986 26.489063c22.906001-22.842018 48.1154-42.612841 75.372262-58.736618L299.124227 113.064151C287.54326 69.747495 313.200541 25.215157 356.517197 13.570206l39.221729-10.557235c43.316656-11.64495 87.848995 14.076314 99.429962 57.456953l17.083526 63.855278C545.267768 124.261219 578.411089 128.42013 611.106526 136.993885l27.320845-47.219634c22.394136-38.837829 71.98115-52.146344 110.818979-29.752209l35.062818 20.346672c38.901813 22.458119 52.210327 72.109116 29.816192 110.946946l-27.320845 47.219634c23.801767 23.993717 44.020472 50.738713 60.464166 79.403206l63.663328-17.083526c43.444623-11.64495 87.912978 14.076314 99.493945 57.456953l10.557235 39.157746c11.580967 43.38064-14.20428 87.912978-57.39297 99.557928l-65.07096 17.403442c-0.319916 31.671706-4.798743 63.407395-13.116565 94.631218l45.875986 26.553046c38.709863 22.394136 52.018378 72.1731 29.624242 110.882963l-20.218705 35.190784C918.2261 820.654851 868.511119 833.963366 829.737273 811.633214L829.737273 811.633214zM623.455293 318.706299C516.731241 256.962468 380.190997 293.560884 318.639116 400.412902c-61.615864 106.788035-25.081432 243.392262 81.706603 305.136092 106.724052 61.743831 243.264295 25.145415 304.88016-81.706603C766.77776 516.990373 730.243328 380.322163 623.455293 318.706299L623.455293 318.706299zM439.823381 637.278873C369.697745 596.649512 345.640046 506.945004 386.141439 436.755385s130.269886-94.311302 200.331538-53.745925c70.189619 40.501394 94.247319 130.397852 53.745925 200.523488C599.717509 653.722566 510.013 677.780266 439.823381 637.278873L439.823381 637.278873z" p-id="9675" fill="#2196f3"></path></svg>