<?xml version="1.0" standalone="no"?><!DOCTYPE svg PUBLIC "-//W3C//DTD SVG 1.1//EN" "http://www.w3.org/Graphics/SVG/1.1/DTD/svg11.dtd"><svg t="1557199987275" class="icon" style="" viewBox="0 0 1024 1024" version="1.1" xmlns="http://www.w3.org/2000/svg" p-id="21094" xmlns:xlink="http://www.w3.org/1999/xlink" width="32" height="32"><defs><style type="text/css"></style></defs><path d="M836.285926 578.828785L953.938318 775.976037A515.126692 515.126692 0 0 1 0 515.232897a515.126692 515.126692 0 0 1 1017.534206-113.836639zM514.490733 133.65757A381.575327 381.575327 0 0 0 127.191776 515.232897a386.662998 386.662998 0 0 0 673.480452 254.383551l-75.679106-127.191775-50.87671-83.310613 71.227394-69.955477 127.191776-123.376023A381.575327 381.575327 0 0 0 514.490733 133.65757z m29.890067 317.979439a95.393832 95.393832 0 1 1 95.393832-95.393832A95.393832 95.393832 0 0 1 544.3808 451.637009z" p-id="21095" fill="#2196f3"></path></svg>