<?xml version="1.0" standalone="no"?><!DOCTYPE svg PUBLIC "-//W3C//DTD SVG 1.1//EN" "http://www.w3.org/Graphics/SVG/1.1/DTD/svg11.dtd"><svg t="1557132588861" class="icon" style="" viewBox="0 0 1024 1024" version="1.1" xmlns="http://www.w3.org/2000/svg" p-id="15899" xmlns:xlink="http://www.w3.org/1999/xlink" width="32" height="32"><defs><style type="text/css"></style></defs><path d="M264.96 270.912a64.128 64.128 0 0 0-90.048 8.128l-160 192a63.872 63.872 0 0 0 0 81.92l160 192a64 64 0 0 0 98.24-81.92L147.2 512l125.888-151.04a64 64 0 0 0-8.128-90.048zM588.48 129.28a64.64 64.64 0 0 0-75.2 50.24l-128 640a63.808 63.808 0 0 0 50.24 75.2 60.736 60.736 0 0 0 12.608 1.28 64 64 0 0 0 62.656-51.52l128-639.936a63.808 63.808 0 0 0-50.304-75.264zM1009.088 471.04l-160-192a64 64 0 1 0-98.24 81.92L876.736 512l-125.888 151.04a64 64 0 1 0 98.24 81.92l160-192a63.872 63.872 0 0 0 0-81.92z" p-id="15900" fill="#2196f3"></path></svg>