<?xml version="1.0" standalone="no"?><!DOCTYPE svg PUBLIC "-//W3C//DTD SVG 1.1//EN" "http://www.w3.org/Graphics/SVG/1.1/DTD/svg11.dtd"><svg t="1557396358214" class="icon" style="" viewBox="0 0 1024 1024" version="1.1" xmlns="http://www.w3.org/2000/svg" p-id="9281" xmlns:xlink="http://www.w3.org/1999/xlink" width="32" height="32"><defs><style type="text/css"></style></defs><path d="M875.200794 719.398211V563.853648c0-28.636025-23.202265-51.853648-51.858768-51.853648H564.106548V408.292703h51.84341c28.656502 0 51.858768-23.202265 51.858767-51.83829v-207.377734c0-28.636025-23.202265-51.874126-51.858767-51.874126H408.555842c-28.625786 0-51.84341 23.238101-51.84341 51.874126v207.377734c0 28.636025 23.217624 51.83829 51.84341 51.83829h51.858768v103.707297H201.178108c-28.641144 0-51.858768 23.217624-51.858768 51.853648v155.544563c-28.625786 0-51.84341 23.202265-51.843409 51.833171V874.943798c0 28.630905 23.217624 51.853648 51.843409 51.853649h103.702178c28.630905 0 51.848529-23.222743 51.848529-51.853649V771.231382c0-28.630905-23.217624-51.833171-51.848529-51.833171V615.691939h207.393092v103.707296c-28.641144 0-51.858768 23.202265-51.858768 51.833171V874.943798c0 28.630905 23.217624 51.853648 51.858768 51.853649h103.691938c28.641144 0 51.84341-23.222743 51.84341-51.853649V771.231382c0-28.630905-23.202265-51.833171-51.84341-51.833171V615.691939h207.393092v103.707296c-28.625786 0-51.84341 23.202265-51.843409 51.833171V874.943798c0 28.630905 23.217624 51.853648 51.843409 51.853649h103.702177c28.641144 0 51.858768-23.222743 51.858768-51.853649V771.231382c-0.001024-28.630905-23.218648-51.833171-51.859791-51.833171z m-414.786184-414.775945V200.91497h103.707296v103.707296H460.41461z" fill="#2196f3" p-id="9282"></path></svg>