<?xml version="1.0" standalone="no"?><!DOCTYPE svg PUBLIC "-//W3C//DTD SVG 1.1//EN" "http://www.w3.org/Graphics/SVG/1.1/DTD/svg11.dtd"><svg t="1557132660569" class="icon" style="" viewBox="0 0 1024 1024" version="1.1" xmlns="http://www.w3.org/2000/svg" p-id="19657" xmlns:xlink="http://www.w3.org/1999/xlink" width="32" height="32"><defs><style type="text/css"></style></defs><path d="M872.276439 4.875965L437.968526 140.756999a138.438016 138.438016 0 0 0-94.970325 124.922112v466.086687a149.395938 149.395938 0 0 0-101.545278-11.32392C138.080658 735.417772 54.79925 815.7782 54.79925 900.1556s83.281408 136.246031 186.653673 121.269138S420.070654 928.647398 420.070654 844.269998V393.8892c0-36.52674 44.197686-53.329621 44.197685-53.329621L848.16761 217.828451s42.736696-14.609896 42.736696 25.203821v371.846357a187.01867 187.01867 0 0 0-109.582221-14.609897C678.316818 613.051642 594.669412 691.950081 594.669412 776.327481s83.282408 137.707021 186.653673 125.288109S967.976758 810.299239 967.976758 725.920839V74.277472A70.132501 70.132501 0 0 0 872.277439 4.875965z" p-id="19658" fill="#2196f3"></path></svg>