<?xml version="1.0" standalone="no"?><!DOCTYPE svg PUBLIC "-//W3C//DTD SVG 1.1//EN" "http://www.w3.org/Graphics/SVG/1.1/DTD/svg11.dtd"><svg t="1557397419210" class="icon" style="" viewBox="0 0 1024 1024" version="1.1" xmlns="http://www.w3.org/2000/svg" p-id="40279" xmlns:xlink="http://www.w3.org/1999/xlink" width="32" height="32"><defs><style type="text/css"></style></defs><path d="M838.055036 116.663412c28.956825 0 56.770392 11.722651 77.349019 32.608421a112.022129 112.022129 0 0 1 31.652864 78.543468v686.005432c-0.341271 60.746197-48.972355 109.889187-108.762993 109.991568H185.579457C125.771755 1023.692856 77.157734 974.549866 76.816463 913.820733V227.917682a111.527287 111.527287 0 0 1 31.652864-78.526404 108.421723 108.421723 0 0 1 77.127193-32.727866h21.687757v44.433454c0 36.635417 29.178651 66.479545 65.250971 66.718435h21.704821c36.055257-0.23889 65.233907-29.963573 65.233907-66.718435V116.663412h75.079569v44.433454c0 36.635417 29.161587 66.479545 65.233907 66.718435h22.950459c36.055257-0.23889 65.233907-29.963573 65.233907-66.718435V116.663412h73.714486v44.433454c0 36.635417 29.059206 66.479545 65.233907 66.718435h22.950459c36.07232-0.23889 65.233907-29.963573 65.233907-66.718435V116.663412h22.950459zM228.357747 372.804186c0 19.008782 15.101231 34.161204 33.717552 34.161204H750.280195c18.56513 0 33.717552-15.28893 33.717552-34.161204a33.85406 33.85406 0 0 0-33.717552-34.14414H262.075299c-18.56513 0-33.717552 15.28893-33.717552 34.14414z m0 204.933095c0 18.974655 15.101231 34.127077 33.717552 34.127077H750.280195c18.56513 0 33.717552-15.271867 33.717552-34.127077a33.85406 33.85406 0 0 0-33.717552-34.161203H262.075299c-18.56513 0-33.717552 15.28893-33.717552 34.14414z m0 204.898969c0 18.991718 15.101231 34.161204 33.717552 34.161204H750.280195c18.56513 0 33.717552-15.28893 33.717552-34.161204a33.85406 33.85406 0 0 0-33.717552-34.14414H262.075299c-18.56513 0-33.717552 15.28893-33.717552 34.14414zM321.098078 149.476596c-0.58016 10.988919-4.487711 21.209978-10.80122 28.359601-6.313509 7.149623-14.555198 10.767093-22.865141 9.896852-8.327007 0.87024-16.551632-2.74723-22.865141-9.896852-6.330573-7.166686-10.238123-17.370682-10.818284-28.359601V38.154072c0.682542-10.988919 4.573028-21.090533 10.886538-28.240156 6.313509-7.149623 14.555198-10.664711 22.796887-9.777408 8.309943-0.887304 16.551632 2.730166 22.865141 9.896853 6.313509 7.132559 10.238123 17.353619 10.80122 28.325473v111.322524-0.221826z m218.89107 0.051191c-0.58016 10.971855-4.487711 21.175851-10.80122 28.325473-6.313509 7.132559-14.555198 10.750029-22.865141 9.879789-8.327007 0.87024-16.551632-2.74723-22.865141-9.896852-6.330573-7.132559-10.238123-17.336555-10.818284-28.30841V38.324707c0.58016-10.971855 4.487711-21.175851 10.818284-28.325474 6.313509-7.132559 14.538135-10.750029 22.865141-9.862725 8.309943-0.887304 16.551632 2.730166 22.865141 9.862725 6.313509 7.149623 10.238123 17.353619 10.80122 28.325474v111.186016z m235.732782-0.051191c-0.58016 10.988919-4.487711 21.209978-10.801219 28.359601-6.313509 7.149623-14.555198 10.767093-22.865142 9.896852-8.327007 0.87024-16.551632-2.74723-22.865141-9.896852-6.330573-7.166686-10.238123-17.370682-10.818283-28.359601V38.154072c0.682542-10.988919 4.573028-21.090533 10.886537-28.240156 6.313509-7.149623 14.555198-10.664711 22.796887-9.777408 8.309943-0.887304 16.551632 2.730166 22.865142 9.896853 6.313509 7.132559 10.238123 17.353619 10.801219 28.325473v111.322524-0.221826z" p-id="40280" fill="#2196f3"></path></svg>