<?xml version="1.0" standalone="no"?><!DOCTYPE svg PUBLIC "-//W3C//DTD SVG 1.1//EN" "http://www.w3.org/Graphics/SVG/1.1/DTD/svg11.dtd"><svg t="1558071953195" class="icon" style="" viewBox="0 0 1045 1024" version="1.1" xmlns="http://www.w3.org/2000/svg" p-id="120406" xmlns:xlink="http://www.w3.org/1999/xlink" width="32.65625" height="32"><defs><style type="text/css"></style></defs><path d="M324.194043 623.724936A401.930894 401.930894 0 0 1 261.446809 610.042553L43.574468 697.191489l87.148936-152.510638c-68.564426-54.860255-108.93617-136.170213-108.93617-220.704681C21.787234 157.085957 187.588085 21.787234 392.170213 21.787234s370.382979 135.298723 370.382978 302.188936" fill="#FFD306" p-id="120407"></path><path d="M413.957447 697.191489c0 186.847319 217.87234 326.808511 413.957447 239.659575l174.297872 65.361702-65.361702-130.723404c56.472511-45.186723 87.148936-104.709447 87.148936-174.297873 0-137.477447-136.540596-261.446809-305.021277-261.446808-168.458894 0-305.021277 123.969362-305.021276 261.446808z" fill="#FFD306" p-id="120408"></path></svg>