<?xml version="1.0" standalone="no"?><!DOCTYPE svg PUBLIC "-//W3C//DTD SVG 1.1//EN" "http://www.w3.org/Graphics/SVG/1.1/DTD/svg11.dtd"><svg t="1557826954277" class="icon" style="" viewBox="0 0 1024 1024" version="1.1" xmlns="http://www.w3.org/2000/svg" p-id="4668" xmlns:xlink="http://www.w3.org/1999/xlink" width="32" height="32"><defs><style type="text/css"></style></defs><path d="M682.9 825.9H267.8c-21.8 0-39.5-17.7-39.5-39.5s17.7-39.5 39.5-39.5h415.1c21.8 0 39.5 17.7 39.5 39.5s-17.7 39.5-39.5 39.5z" fill="#2196f3" p-id="4669"></path><path d="M864.7 100.4c-18.5 3.7-31.3 20.9-31.3 39.7v645.8c0 48-38.9 87-87 87H219.3c-16.4 0-29.6-13.3-29.6-29.6V732.7c0-16.1 13.1-29.2 29.2-29.2h375.9c88.1 0 159.5-71.4 159.5-159.5V185.5c0-66.2-53.7-119.9-119.9-119.9h-404c-66.2 0-119.9 53.7-119.9 119.9v657.8c0 60 48.7 108.7 108.7 108.7h527.1c91.7 0 166.1-74.3 166.1-166.1V139.1c0.1-24.6-22.2-43.9-47.7-38.7z" fill="#2196f3" p-id="4670"></path></svg>