<?xml version="1.0" standalone="no"?><!DOCTYPE svg PUBLIC "-//W3C//DTD SVG 1.1//EN" "http://www.w3.org/Graphics/SVG/1.1/DTD/svg11.dtd"><svg t="1557397345934" class="icon" style="" viewBox="0 0 1024 1024" version="1.1" xmlns="http://www.w3.org/2000/svg" p-id="35150" xmlns:xlink="http://www.w3.org/1999/xlink" width="32" height="32"><defs><style type="text/css"></style></defs><path d="M512 1024a24.1664 24.1664 0 0 1-14.82752-5.07904C481.03424 1006.46912 102.4 710.2464 102.4 401.89952 102.4 180.30592 286.14656 0 512 0s409.6 180.26496 409.6 401.89952c0 308.30592-378.63424 604.5696-394.77248 617.02144A24.1664 24.1664 0 0 1 512 1024z m8.88832-432.78336c99.08224 0 179.4048-79.42144 179.4048-177.3568 0-97.97632-80.32256-177.3568-179.4048-177.3568-99.04128 0-179.32288 79.38048-179.32288 177.3568 0 97.93536 80.2816 177.3568 179.32288 177.3568z" p-id="35151" fill="#2196f3"></path></svg>