<?xml version="1.0" standalone="no"?><!DOCTYPE svg PUBLIC "-//W3C//DTD SVG 1.1//EN" "http://www.w3.org/Graphics/SVG/1.1/DTD/svg11.dtd"><svg t="1557134811101" class="icon" style="" viewBox="0 0 1024 1024" version="1.1" xmlns="http://www.w3.org/2000/svg" p-id="24841" data-spm-anchor-id="a313x.7781069.0.i21" xmlns:xlink="http://www.w3.org/1999/xlink" width="32" height="32"><defs><style type="text/css"></style></defs><path d="M512 549.003636c137.402182 0 249.204364-112.686545 249.204364-251.205818 0-138.519273-111.802182-251.205818-249.204364-251.205818S262.795636 159.278545 262.795636 297.797818c0 138.565818 111.755636 251.205818 249.204364 251.205818z m0-423.377454c94.161455 0 170.728727 77.218909 170.728727 172.125091 0 94.952727-76.613818 172.171636-170.728727 172.171636-94.114909 0-170.728727-77.218909-170.728727-172.171636 0-94.859636 76.567273-172.125091 170.728727-172.125091z m367.895273 674.397091c10.472727 44.032 2.280727 86.295273-22.993455 118.784-29.184 37.282909-78.568727 58.647273-135.633454 58.647272H302.685091c-57.064727 0-106.496-21.364364-135.586909-58.647272-25.367273-32.442182-33.559273-74.705455-22.993455-119.109818l25.972364-113.384728c23.319273-98.164364 61.533091-158.859636 179.944727-158.859636 21.690182 0 39.237818 17.733818 39.237818 39.563636s-17.547636 39.563636-39.237818 39.563637c-66.048 0-84.433455 17.361455-103.610182 97.885091l-25.972363 113.338181c-5.026909 21.271273-2.280727 38.632727 8.192 52.037819 13.963636 17.873455 41.611636 28.485818 74.007272 28.485818h418.583273c32.349091 0 59.997091-10.658909 74.007273-28.485818 10.472727-13.405091 13.218909-30.766545 8.285091-51.665455l-26.158546-113.989818c-19.037091-80.197818-37.469091-97.559273-103.517091-97.559273-21.690182 0-39.284364-17.733818-39.284363-39.563636s17.594182-39.563636 39.284363-39.563637c118.365091 0 156.625455 60.648727 179.898182 158.533819l26.158546 113.989818z" p-id="24842" fill="#2196f3"></path></svg>