<svg width="512" height="512" xmlns="http://www.w3.org/2000/svg">
 <g>
  <title>background</title>
  <rect x="-1" y="-1" width="514" height="514" id="canvas_background" fill="none"/>
 </g>

 <g>
  <title>Layer 1</title>
  <g stroke="null" id="svg_1">
   <path stroke="null" d="m495.58203,35.62109l-100.43359,0l0,-20.33203c0,-20.37109 -30.83594,-20.40234 -30.83594,0l0,20.33203l-218.625,0l0,-20.33203c0,-20.36719 -30.83594,-20.40234 -30.83594,0l0,20.33203l-100.43359,0c-8.51953,0 -15.41797,6.89844 -15.41797,15.41797l0,439.125c0,8.51172 6.89844,15.41797 15.41797,15.41797l481.16406,0c8.51953,0 15.41797,-6.90625 15.41797,-15.41797c0,-4.34765 0,-428.08203 0,-439.125c0,-8.51953 -6.89844,-15.41797 -15.41797,-15.41797zm-15.41797,439.125l-450.32812,0l0,-295.71875l450.32812,0l0,295.71875zm-450.32812,-408.28906l85.01562,0l0,20.32031c0,20.44922 30.83594,20.33203 30.83594,0l0,-20.32031l218.625,0l0,20.32031c0,20.36719 30.83594,20.41016 30.83594,0l0,-20.32031l85.01562,0l0,81.73438l-450.32812,0l0,-81.73438zm0,0" class="active-path" fill="#FFFFFF" id="svg_2"/>
   <path stroke="null" d="m194.771274,391.1875l11.891041,0c23.827564,0 43.208774,-20.7079 43.208774,-46.166494l0,-48.491224c0,-25.450507 -19.38121,-46.166504 -43.208774,-46.166504l-11.891041,0c-23.827554,0 -43.208774,20.715997 -43.208774,46.166504l0,48.491224c0,25.458594 19.38122,46.166494 43.208774,46.166494zm-13.285963,-94.657718c0,-7.820644 5.954996,-14.195422 13.285963,-14.195422l11.891041,0c7.319604,0 13.285973,6.374778 13.285973,14.195422l0,48.491224c0,7.820644 -5.966369,14.195412 -13.285973,14.195412l-11.891041,0c-7.330967,0 -13.285963,-6.374768 -13.285963,-14.195412l0,-48.491224zm0,0" class="active-path" fill="#FFFFFF" id="svg_4"/>
   <path stroke="null" d="m54.254689,393.1875l66.994531,0c19.358267,0 19.395409,-31.744053 0,-31.744053l-52.110982,0c1.630206,-12.582605 11.637977,-22.298038 23.703013,-22.298038l6.910748,0c19.933855,0 36.154249,-17.564988 36.154249,-39.151263l0,-7.479601c0,-21.586276 -16.220395,-39.151263 -36.154249,-39.151263l-45.497311,0c-19.358277,0 -19.406551,31.744053 0,31.744053l45.497311,0c3.761734,0 6.840191,3.321582 6.840191,7.407211l0,7.479601c0,8.726193 -8.912305,7.407211 -13.75094,7.407211c-29.362332,0 -53.243591,25.872967 -53.243591,57.661255l0,12.252862c0,8.758363 6.557964,15.872026 14.657029,15.872026zm0,0" class="active-path" fill="#FFFFFF" id="svg_5"/>
   <path stroke="null" d="m278.950313,388.1875l65.603288,0c18.956263,0 18.992634,-31.289998 0,-31.289998l-51.028818,0c1.596352,-12.402628 11.396297,-21.979095 23.210784,-21.979095l6.767236,0c19.519898,0 35.403451,-17.313745 35.403451,-38.591259l0,-7.372616c0,-21.277514 -15.883553,-38.591259 -35.403451,-38.591259l-44.55249,0c-18.956273,0 -19.003544,31.289998 0,31.289998l44.55249,0c3.683616,0 6.698144,3.274071 6.698144,7.301261l0,7.372616c0,8.601377 -8.727227,7.301261 -13.465381,7.301261c-28.752578,0 -52.137907,25.50289 -52.137907,56.836491l0,12.077602c0,8.633087 6.421778,15.644999 14.352653,15.644999zm0,0" class="active-path" fill="#FFFFFF" id="svg_7"/>
   <text font-weight="bold" stroke="null" transform="matrix(8.107768399313944,0,0,7.959310132317782,-3049.118302885137,-1920.318812391347) " xml:space="preserve" text-anchor="start" font-family="Arvo, sans-serif" font-size="24" id="svg_8" y="290.105556" x="420.588353" stroke-opacity="null" stroke-width="0" fill="#ffffff">3</text>
  </g>
 </g>
</svg>