<svg width="512" height="512" xmlns="http://www.w3.org/2000/svg">

 <g>
  <title>background</title>
  <rect fill="none" id="canvas_background" height="402" width="582" y="-1" x="-1"/>
 </g>
 <g>
  <title>Layer 1</title>
  <g id="svg_1">
   <path id="svg_2" fill="#FFFFFF" class="active-path" d="m496.58203,35.62109l-100.43359,0l0,-20.33203c0,-20.37109 -30.83594,-20.40234 -30.83594,0l0,20.33203l-218.625,0l0,-20.33203c0,-20.36719 -30.83594,-20.40234 -30.83594,0l0,20.33203l-100.43359,0c-8.51953,0 -15.41797,6.89844 -15.41797,15.41797l0,439.125c0,8.51172 6.89844,15.41797 15.41797,15.41797l481.16406,0c8.51953,0 15.41797,-6.90625 15.41797,-15.41797c0,-4.34765 0,-428.08203 0,-439.125c0,-8.51953 -6.89844,-15.41797 -15.41797,-15.41797zm-15.41797,439.125l-450.32812,0l0,-295.71875l450.32812,0l0,295.71875zm-450.32812,-408.28906l85.01562,0l0,20.32031c0,20.44922 30.83594,20.33203 30.83594,0l0,-20.32031l218.625,0l0,20.32031c0,20.36719 30.83594,20.41016 30.83594,0l0,-20.32031l85.01562,0l0,81.73438l-450.32812,0l0,-81.73438zm0,0"/>
   <path id="svg_3" fill="#FFFFFF" class="active-path" d="m423.91406,305.30078l4.78125,-3.44531l0,74.91406c0,20.36328 30.83594,20.40235 30.83594,0l0,-104.98828c0,-12.5625 -14.24219,-19.81641 -24.41016,-12.51953l-29.20312,21c-16.55469,11.90625 1.45703,36.92969 17.99609,25.03906zm0,0"/>
   <path id="svg_4" fill="#FFFFFF" class="active-path" d="m214.08984,392.1875l12.25391,0c24.55469,0 44.52734,-19.97266 44.52734,-44.52734l0,-46.76953c0,-24.54688 -19.97265,-44.52735 -44.52734,-44.52735l-12.25391,0c-24.55468,0 -44.52734,19.98047 -44.52734,44.52735l0,46.76953c0,24.55468 19.97266,44.52734 44.52734,44.52734zm-13.6914,-91.29687c0,-7.54297 6.13672,-13.69141 13.6914,-13.69141l12.25391,0c7.54297,0 13.69141,6.14844 13.69141,13.69141l0,46.76953c0,7.54297 -6.14844,13.6914 -13.69141,13.6914l-12.25391,0c-7.55468,0 -13.6914,-6.14843 -13.6914,-13.6914l0,-46.76953zm0,0"/>
   <path id="svg_5" fill="#FFFFFF" class="active-path" d="m67.01563,392.1875l70.47265,0c20.36328,0 20.40235,-30.83594 0,-30.83594l-54.8164,0c1.71484,-12.22265 12.24218,-21.66015 24.93359,-21.66015l7.26953,0c20.96875,0 38.03125,-17.0625 38.03125,-38.03125l0,-7.26563c0,-20.96875 -17.0625,-38.03125 -38.03125,-38.03125l-47.85937,0c-20.36329,0 -20.41407,30.83594 0,30.83594l47.85937,0c3.95703,0 7.19531,3.22656 7.19531,7.19531l0,7.26563c0,8.47656 -9.375,7.19531 -14.46484,7.19531c-30.88672,0 -56.00781,25.13281 -56.00781,56.01172l0,11.90234c0,8.50781 6.89843,15.41797 15.41797,15.41797zm0,0"/>
   <path id="svg_7" fill="#FFFFFF" class="active-path" d="m303.01563,389.1875l70.47265,0c20.36328,0 20.40235,-30.83594 0,-30.83594l-54.8164,0c1.71484,-12.22265 12.24218,-21.66015 24.93359,-21.66015l7.26953,0c20.96875,0 38.03125,-17.0625 38.03125,-38.03125l0,-7.26563c0,-20.96875 -17.0625,-38.03125 -38.03125,-38.03125l-47.85937,0c-20.36329,0 -20.41407,30.83594 0,30.83594l47.85937,0c3.95703,0 7.19531,3.22656 7.19531,7.19531l0,7.26563c0,8.47656 -9.375,7.19531 -14.46484,7.19531c-30.88672,0 -56.00781,25.13281 -56.00781,56.01172l0,11.90234c0,8.50781 6.89843,15.41797 15.41797,15.41797zm0,0"/>
  </g>
 </g>
</svg>