<?xml version="1.0" standalone="no"?><!DOCTYPE svg PUBLIC "-//W3C//DTD SVG 1.1//EN" "http://www.w3.org/Graphics/SVG/1.1/DTD/svg11.dtd"><svg t="1558071789946" class="icon" style="" viewBox="0 0 1024 1024" version="1.1" xmlns="http://www.w3.org/2000/svg" p-id="109102" xmlns:xlink="http://www.w3.org/1999/xlink" width="32" height="32"><defs><style type="text/css"></style></defs><path d="M720 947.2l-44.8-19.2 169.6-435.2c6.4-19.2-3.2-41.6-22.4-48l-297.6-99.2c-19.2-6.4-38.4 3.2-48 22.4l-150.4 393.6L256 736l208-553.6c6.4-19.2 28.8-28.8 48-22.4l448 137.6c22.4 6.4 32 28.8 25.6 51.2l-230.4 585.6c-6.4 9.6-22.4 16-35.2 12.8z m0 0" fill="#999999" p-id="109103"></path><path d="M38.4 707.2c0 83.2 67.2 147.2 147.2 147.2s147.2-67.2 147.2-147.2-67.2-147.2-147.2-147.2-147.2 67.2-147.2 147.2z m0 0M467.2 873.6c0 83.2 67.2 147.2 147.2 147.2 83.2 0 147.2-67.2 147.2-147.2 0-83.2-67.2-147.2-147.2-147.2-80 0-147.2 67.2-147.2 147.2z m0 0" fill="#999999" p-id="109104"></path><path d="M195.2 387.2L73.6 86.4c-6.4-19.2 3.2-38.4 22.4-44.8L220.8 3.2c16-6.4 35.2 3.2 41.6 19.2l16 32c6.4 19.2-3.2 41.6-22.4 48L172.8 128c-9.6 3.2-12.8 12.8-9.6 19.2l80 208c3.2 6.4 0 12.8-6.4 16l-41.6 16z m0 0" fill="#999999" p-id="109105"></path><path d="M57.6 387.2c0 54.4 44.8 96 96 96 54.4 0 96-44.8 96-96 0-54.4-44.8-96-96-96-54.4 0-96 41.6-96 96z m0 0" fill="#999999" p-id="109106"></path></svg>