<?xml version="1.0" standalone="no"?><!DOCTYPE svg PUBLIC "-//W3C//DTD SVG 1.1//EN" "http://www.w3.org/Graphics/SVG/1.1/DTD/svg11.dtd"><svg t="1557208252891" class="icon" style="" viewBox="0 0 1204 1024" version="1.1" xmlns="http://www.w3.org/2000/svg" p-id="27901" xmlns:xlink="http://www.w3.org/1999/xlink" width="37.625" height="32"><defs><style type="text/css"></style></defs><path d="M266.842353 163.538824c-66.499765 0-120.591059 55.597176-120.591059 124.084705 0 68.367059 54.091294 123.964235 120.591059 123.964236 66.379294 0 120.470588-55.717647 120.470588-124.144941 0-68.306824-54.091294-123.904-120.470588-123.904z m0 153.840941a29.515294 29.515294 0 0 1-28.973177-29.816471 29.515294 29.515294 0 0 1 28.973177-29.81647 29.515294 29.515294 0 0 1 28.973176 29.81647 29.515294 29.515294 0 0 1-28.912941 29.816471z m912.323765 241.664L658.733176 18.672941A60.235294 60.235294 0 0 0 615.002353 0H89.871059C40.297412 0 0 40.96 0 91.557647v333.281882c0 16.745412 6.384941 32.346353 17.950118 44.272942l519.830588 528.203294A89.148235 89.148235 0 0 0 601.148235 1024c23.973647 0 46.381176-9.396706 63.488-26.684235l41.020236-41.743059 41.020235 41.743059a89.148235 89.148235 0 0 0 63.488 26.684235c23.913412 0 46.381176-9.517176 63.488-26.684235l304.730353-309.609412a92.762353 92.762353 0 0 0 0.722823-128.662588z m-209.739294 128.662588c16.926118-16.986353 26.202353-39.815529 26.383058-64.150588a91.738353 91.738353 0 0 0-25.660235-64.512L522.360471 93.967059h80.173176l509.229177 528.986353-301.537883 306.29647-39.393882-39.936 198.595765-201.667764zM91.557647 411.407059V93.967059h301.899294l509.048471 528.685176-203.053177 206.426353-52.645647 53.850353-45.658353 46.381177-509.590588-517.903059z" fill="#2196f3" p-id="27902"></path></svg>