<?xml version="1.0" standalone="no"?><!DOCTYPE svg PUBLIC "-//W3C//DTD SVG 1.1//EN" "http://www.w3.org/Graphics/SVG/1.1/DTD/svg11.dtd"><svg t="1557831402447" class="icon" style="" viewBox="0 0 1024 1024" version="1.1" xmlns="http://www.w3.org/2000/svg" p-id="19268" xmlns:xlink="http://www.w3.org/1999/xlink" width="32" height="32"><defs><style type="text/css"></style></defs><path d="M684.803 362.2l5-93.6s15.6-136-177.6-138.4c-185.4 8.4-177.4 138.8-177.4 138.8l4.8 93c-9.6 8.6-15.6 21-15.6 34.8v62.8c0 16.6 8.6 31 21.8 39.6 15.6 68.4 56.8 117.4 56.8 117.4V674c0 7.2-1.4 14.2-4 20.8L512.003 812l113.6-117.4c-2.4-6.4-3.8-13.2-3.8-20.4v-57.4s41-49.2 56.8-117.4c13-8.4 21.8-23 21.8-39.6v-62.8c0-13.8-6.2-26.2-15.6-34.8z" p-id="19269" fill="#FFD306"></path><path d="M418.203 8.4c-201.8 35.8-362.8 190-406 390.4-43 199.8 31.2 385.8 166.6 501.8 1 0.8 1.8 1.6 2.8 2.4 2.8 2.4 5.4 4.6 8.2 6.8 1 0.8 2.2 1.8 3.2 2.6 2.8 2.2 5.8 4.4 8.6 6.6 0.8 0.6 1.8 1.4 2.6 2 7.6 5.8 15.4 11.2 23.2 16.6 1 0.6 2 1.4 3 2 3 2 6 3.8 9 5.8 1.2 0.8 2.4 1.6 3.6 2.2l9 5.4c1 0.6 2.2 1.4 3.2 2 4 2.4 8.2 4.6 12.4 7 72.6 39.6 156 62 244.4 62s171.8-22.4 244.4-62c4.2-2.2 8.2-4.6 12.4-7 1-0.6 2.2-1.2 3.2-1.8l9-5.4c1.2-0.8 2.4-1.6 3.6-2.2 3-1.8 6-3.8 9-5.8 1-0.6 2-1.4 3-2 8-5.2 15.6-10.8 23.2-16.6 0.8-0.6 1.8-1.4 2.6-2 2.8-2.2 5.8-4.4 8.6-6.6 1-0.8 2.2-1.8 3.2-2.6 2.8-2.2 5.6-4.6 8.2-6.8 1-0.8 1.8-1.6 2.8-2.4 109.4-94 178.8-233.2 178.8-388.6C1024.003 198.4 742.203-49.2 418.203 8.4zM827.403 830c-9.8-11.8-22-21.8-35.8-29.2L660.003 729l4.2 4.4-76 196.8-76-118-76 118-76.4-196.8 4.2-4.2-131.2 71.6c-13.8 7.6-26 17.6-35.8 29.2C114.603 748.8 64.003 636.2 64.003 512c0-246.8 199.8-447.2 446.4-448 244.2-0.8 445.4 196 449.4 440.4 2.2 127.2-48.8 242.8-132.4 325.6z" p-id="19270" fill="#FFD306"></path></svg>