<?xml version="1.0" standalone="no"?><!DOCTYPE svg PUBLIC "-//W3C//DTD SVG 1.1//EN" "http://www.w3.org/Graphics/SVG/1.1/DTD/svg11.dtd"><svg t="1558071674217" class="icon" style="" viewBox="0 0 1024 1024" version="1.1" xmlns="http://www.w3.org/2000/svg" p-id="101531" xmlns:xlink="http://www.w3.org/1999/xlink" width="32" height="32"><defs><style type="text/css"></style></defs><path d="M608.768 176c-17.6 0-32 14.4-32 32v224h-224c-17.6 0-32 14.4-32 32v160H96c-17.6 0-32 14.4-32 32v256c0 17.6 14.4 32 32 32h831.232c17.6 0 32-14.4 32-32V784 656 464 208c0-17.6-14.4-32-32-32H608.768zM576 80h384v64H576V80zM320 336h224v64H320v-64zM64 528.448h224v64H64v-64z" fill="#999999" p-id="101532"></path></svg>