<?xml version="1.0" standalone="no"?><!DOCTYPE svg PUBLIC "-//W3C//DTD SVG 1.1//EN" "http://www.w3.org/Graphics/SVG/1.1/DTD/svg11.dtd"><svg t="1558071624950" class="icon" style="" viewBox="0 0 1024 1024" version="1.1" xmlns="http://www.w3.org/2000/svg" p-id="99685" xmlns:xlink="http://www.w3.org/1999/xlink" width="32" height="32"><defs><style type="text/css"></style></defs><path d="M956 807.2H657.6c-16.8 0-29.6-13.6-29.6-29.6 0-16.8 13.6-29.6 29.6-29.6h299.2c16.8 0 29.6 13.6 29.6 29.6s-13.6 29.6-30.4 29.6z m0-180H657.6c-16.8 0-29.6-13.6-29.6-29.6 0-16.8 13.6-29.6 29.6-29.6h299.2c16.8 0 29.6 13.6 29.6 29.6 0 16.8-13.6 29.6-30.4 29.6z m-448-62.4v3.2c-198.4 0-358.4 173.6-358.4 388.8 0 10.4 0.8 20 1.6 29.6h-120c-0.8-9.6-1.6-20-1.6-29.6C29.6 755.2 140 581.6 300 500c-55.2-49.6-91.2-120-91.2-200 0-148.8 120.8-268.8 268.8-268.8C626.4 31.2 746.4 152 746.4 300c0.8 136.8-104 249.6-238.4 264.8z m-29.6-415.2c-82.4 0-149.6 67.2-149.6 149.6S396 448 478.4 448 628 380.8 628 298.4s-67.2-148.8-149.6-148.8z m179.2 776.8h299.2c16.8 0 29.6 13.6 29.6 29.6 0 16.8-13.6 29.6-29.6 29.6H657.6c-16.8 0-29.6-13.6-29.6-29.6-0.8-16 12.8-29.6 29.6-29.6z" fill="#FFD306" p-id="99686"></path></svg>